<svg width="121" height="129" viewBox="0 0 121 129" fill="none" xmlns="http://www.w3.org/2000/svg">
<path d="M65.5548 0.0178388C56.7244 0.462211 49.7555 8.01815 50.2099 16.8878L52.5498 62.4964L37.3226 68.949C32.6186 60.0091 21.8094 56.0082 12.3704 60.0091C2.40393 64.2349 -2.25363 75.7754 1.9656 85.7915C6.18667 95.8055 17.6863 100.502 27.6551 96.2775C34.4952 93.3785 38.8331 87.031 39.5181 80.0987L58.1671 72.1945L59.2086 92.5054C53.2985 96.1449 49.5022 102.833 49.8829 110.283C50.4406 121.141 59.6547 129.498 70.4628 128.955C81.2737 128.41 89.5834 119.17 89.0272 108.315C88.4996 98.0343 80.2079 89.9989 70.1521 89.6357L69.3003 73.0506L111.171 55.3044C119.316 51.8533 123.048 42.2576 119.6 34.0758L68.4145 55.7718L65.5548 0.0178388ZM28.6833 83.5561C25.7058 88.3276 19.4364 89.7664 14.6808 86.7695C9.92517 83.7727 8.48365 77.4744 11.461 72.7031C14.4391 67.9304 20.7078 66.4927 25.4634 69.4896C30.2191 72.4864 31.6614 78.7834 28.6833 83.5561ZM78.0537 114.668C75.0763 119.44 68.807 120.878 64.0513 117.881C59.2957 114.885 57.854 108.587 60.8315 103.815C63.8096 99.0423 70.0783 97.6046 74.8339 100.601C79.5894 103.598 81.0319 109.895 78.0537 114.668Z" fill="#99BAED"/>
</svg>
